<svg xmlns="http://www.w3.org/2000/svg" width="24" height="24" fill="none"><g fill="#F4F4FD" clip-path="url(#a)" filter="url(#b)"><path d="M19.996 16H20V10.13c0-2.87-.618-5.082-3.974-5.082-1.613 0-2.696.886-3.138 1.725h-.047V5.317H9.66V16h3.314v-5.29c0-1.392.264-2.738 1.988-2.738 1.7 0 1.725 1.589 1.725 2.828V16h3.31ZM4.264 5.318h3.317V16H4.264V5.318ZM5.921 0C4.861 0 4 .86 4 1.92c0 1.06.86 1.94 1.921 1.94s1.922-.88 1.922-1.94C7.842.861 6.98 0 5.92 0Z"/></g><defs><clipPath id="a"><path fill="#fff" d="M4 0h16v16H4z"/></clipPath><filter id="b" width="24" height="24" x="0" y="0" color-interpolation-filters="sRGB" filterUnits="userSpaceOnUse"><feFlood flood-opacity="0" result="BackgroundImageFix"/><feColorMatrix in="SourceAlpha" result="hardAlpha" values="0 0 0 0 0 0 0 0 0 0 0 0 0 0 0 0 0 0 127 0"/><feOffset dy="4"/><feGaussianBlur stdDeviation="2"/><feComposite in2="hardAlpha" operator="out"/><feColorMatrix values="0 0 0 0 0 0 0 0 0 0 0 0 0 0 0 0 0 0 0.25 0"/><feBlend in2="BackgroundImageFix" result="effect1_dropShadow_413718_867"/><feBlend in="SourceGraphic" in2="effect1_dropShadow_413718_867" result="shape"/></filter></defs></svg>